<svg width="179" height="52" viewBox="0 0 179 52" fill="none" xmlns="http://www.w3.org/2000/svg">
<path d="M92.8314 41.0004H97.5546V35.8186H100.171C104.138 35.8186 106.797 33.4749 106.797 29.7164C106.797 26.0004 104.206 23.5459 100.341 23.5459H92.8314V41.0004ZM97.5546 32.1368V27.33H99.2196C100.876 27.33 101.87 28.2164 101.87 29.7164C101.87 31.2078 100.876 32.1368 99.2196 32.1368H97.5546Z" fill="white"/>
<path d="M114.604 41.2391C118.851 41.2391 121.366 38.5118 121.366 34.4891C121.366 30.4664 118.851 27.7391 114.604 27.7391C110.356 27.7391 107.842 30.4664 107.842 34.4891C107.842 38.5118 110.356 41.2391 114.604 41.2391ZM114.638 37.7618C113.381 37.7618 112.633 36.509 112.633 34.455C112.633 32.401 113.381 31.1482 114.638 31.1482C115.827 31.1482 116.575 32.401 116.575 34.455C116.575 36.509 115.827 37.7618 114.638 37.7618Z" fill="white"/>
<path d="M129.555 41.2391C133.42 41.2391 135.79 39.0146 135.841 35.5459H131.492C131.39 36.9181 130.651 37.6595 129.623 37.6595C128.391 37.6595 127.584 36.6027 127.584 34.455C127.584 32.3073 128.391 31.2504 129.623 31.2504C130.659 31.2504 131.365 31.9919 131.492 33.3641H135.841C135.816 29.955 133.395 27.7391 129.555 27.7391C125.308 27.7391 122.793 30.4664 122.793 34.4891C122.793 38.5118 125.308 41.2391 129.555 41.2391Z" fill="white"/>
<path d="M144.062 41.2391C147.928 41.2391 150.298 39.0146 150.349 35.5459H145.999C145.897 36.9181 145.158 37.6595 144.13 37.6595C142.899 37.6595 142.092 36.6027 142.092 34.455C142.092 32.3073 142.899 31.2504 144.13 31.2504C145.167 31.2504 145.872 31.9919 145.999 33.3641H150.349C150.323 29.955 147.902 27.7391 144.062 27.7391C139.815 27.7391 137.3 30.4664 137.3 34.4891C137.3 38.5118 139.815 41.2391 144.062 41.2391Z" fill="white"/>
<path d="M156.701 35.0004V27.9095H152.283V41.0004H156.701L160.337 33.8754V41.0004H164.754V27.9095H160.337L156.701 35.0004Z" fill="white"/>
<path d="M174.651 41.0004H179V27.9095H172.884C169.12 27.9095 166.742 29.8186 166.767 32.4777C166.75 33.9692 167.642 35.205 169.205 35.9379L166.631 41.0004H170.947L173.147 36.6709H174.651V41.0004ZM174.651 33.8414H172.986C171.737 33.8414 171.159 33.2277 171.185 32.6482C171.159 32.1027 171.703 31.4209 172.884 31.4209H174.651V33.8414Z" fill="white"/>
<path d="M13.4107 22.0738L10.7653 23.3826L9.74134 23.2081L7.18134 26L7.77867 27.6577L5.90134 30.3624L6.584 34.5503L6.92534 36.6007L5 38L4.75 37.25L4.5 36.5L1 36L1.5 38L0.5 37.5L0 39.5L3 40.745L6.584 50.0805L7.43734 50.8658L8.54667 46.4161L10.7653 45.7181L11.192 40.8322H15.032L16.824 43.8859L20.408 45.5436L21.3467 42.4027L27.064 43.0134L27.1494 44.1477L28.9414 45.6309L30.4774 45.4564L32.2694 49.6443L36.9627 52L40.0347 50.604L41.6561 51.3893L43.7041 50.1678L42.8507 49.1208L45.4107 48.6846L47.0321 49.6443L51.1281 50.1678L54.5414 47.5503L56.8454 46.9396L56.6747 42.2282L59.5761 41.1812L62.1361 43.3624L65.2934 44.0604L66.7441 42.0537L67.5121 48.6846H69.5601L69.7307 43.9732L68.1094 36.6443L65.9761 34.2013L65.0374 35.3356L62.8187 34.8121L63.7574 26.698L67.0001 21.3758L67.1707 15.7919L68.3654 15.5302L70.3281 23.8188L74.7654 26.698L73.4854 21.7248L70.9254 18.1476V12.7383L69.4748 6.28188L67.6828 5.93289L67.0001 4.36242L68.8774 1.91946L67.6828 0L64.4401 3.40268L60.6854 11.1678H58.5521L57.1867 13.1745L53.8587 15.5302V17.2752L51.8107 19.8054L49.7627 17.7114L47.8854 18.1476V19.3691L43.0214 21.8993L44.9841 17.7114L43.8747 16.2282L41.2294 15.7919L40.7174 17.2752L37.4747 20.3289L35.256 20.9396L33.8907 22.8591L31.672 20.5906L30.3067 26.698L27.1494 23.3826L25.272 24.604L20.5787 23.3826H16.056L17.08 19.2819L18.4454 21.8993L20.2374 21.6376L18.872 15.2685L17.592 15.7919L13.4107 22.0738Z" fill="white"/>
<path d="M71.4374 39.6107L67.5121 33.6779V32.8054L71.0961 36.6443L72.7174 39.0872L71.4374 39.6107Z" fill="white"/>
<path d="M27.4054 19.8926V21.6376H25.6987V19.4564L27.32 17.9732L29.9654 16.4027H32.952L30.392 17.7114L27.4054 19.8926Z" fill="white"/>
<path d="M3 24L2.5 24.5L3.5 26.5L4.5 26L4 24.5L3 24Z" fill="white"/>
</svg>